<svg width="12" height="10" viewBox="0 0 12 10" fill="none" xmlns="http://www.w3.org/2000/svg">
<path fill-rule="evenodd" clip-rule="evenodd" d="M1.1001 9.8999C1.4867 9.8999 1.8001 9.5865 1.8001 9.1999L1.8001 0.799904C1.8001 0.413305 1.48669 0.0999044 1.1001 0.0999045C0.713496 0.0999045 0.400096 0.413305 0.400096 0.799904L0.400097 9.1999C0.400097 9.5865 0.713498 9.8999 1.1001 9.8999ZM6.49507 7.59488C6.76844 7.32151 6.76844 6.8783 6.49507 6.60493L5.59005 5.6999L10.9001 5.6999C11.2867 5.6999 11.6001 5.3865 11.6001 4.9999C11.6001 4.6133 11.2867 4.2999 10.9001 4.2999L5.59005 4.2999L6.49507 3.39488C6.76844 3.12151 6.76844 2.6783 6.49507 2.40493C6.2217 2.13156 5.77849 2.13156 5.50512 2.40493L3.40512 4.50493C3.27385 4.6362 3.2001 4.81425 3.2001 4.9999C3.2001 5.18556 3.27385 5.3636 3.40512 5.49488L5.50512 7.59488C5.77849 7.86825 6.22171 7.86825 6.49507 7.59488Z" fill="#34D399"/>
</svg>
