<svg width="12" height="10" viewBox="0 0 12 10" fill="none" xmlns="http://www.w3.org/2000/svg">
<path fill-rule="evenodd" clip-rule="evenodd" d="M10.8999 9.8999C10.5133 9.8999 10.1999 9.5865 10.1999 9.1999L10.1999 0.799904C10.1999 0.413305 10.5133 0.0999044 10.8999 0.0999045C11.2865 0.0999045 11.5999 0.413305 11.5999 0.799904L11.5999 9.1999C11.5999 9.5865 11.2865 9.8999 10.8999 9.8999ZM5.50493 7.59488C5.23156 7.32151 5.23156 6.8783 5.50493 6.60493L6.40995 5.6999L1.0999 5.6999C0.713304 5.6999 0.399903 5.3865 0.399903 4.9999C0.399903 4.6133 0.713303 4.2999 1.0999 4.2999L6.40995 4.2999L5.50493 3.39488C5.23156 3.12151 5.23156 2.6783 5.50493 2.40493C5.7783 2.13156 6.22151 2.13156 6.49488 2.40493L8.59488 4.50493C8.72615 4.6362 8.7999 4.81425 8.7999 4.9999C8.7999 5.18556 8.72615 5.3636 8.59488 5.49488L6.49488 7.59488C6.22151 7.86825 5.77829 7.86825 5.50493 7.59488Z" fill="#F87171"/>
</svg>
