<svg width="14" height="10" viewBox="0 0 14 10" fill="none" xmlns="http://www.w3.org/2000/svg">
<path fill-rule="evenodd" clip-rule="evenodd" d="M2.19998 0.199951C1.77563 0.199951 1.36866 0.368522 1.0686 0.66858C0.768546 0.968638 0.599976 1.3756 0.599976 1.79995V4.99995C0.599976 5.4243 0.768546 5.83126 1.0686 6.13132C1.36866 6.43138 1.77563 6.59995 2.19998 6.59995V1.79995H10.2C10.2 1.3756 10.0314 0.968638 9.73135 0.66858C9.43129 0.368522 9.02432 0.199951 8.59998 0.199951H2.19998ZM3.79998 4.99995C3.79998 4.5756 3.96855 4.16864 4.2686 3.86858C4.56866 3.56852 4.97563 3.39995 5.39998 3.39995H11.8C12.2243 3.39995 12.6313 3.56852 12.9313 3.86858C13.2314 4.16864 13.4 4.5756 13.4 4.99995V8.19995C13.4 8.6243 13.2314 9.03126 12.9313 9.33132C12.6313 9.63138 12.2243 9.79995 11.8 9.79995H5.39998C4.97563 9.79995 4.56866 9.63138 4.2686 9.33132C3.96855 9.03126 3.79998 8.6243 3.79998 8.19995V4.99995ZM8.59998 8.19995C9.02432 8.19995 9.43129 8.03138 9.73135 7.73132C10.0314 7.43126 10.2 7.0243 10.2 6.59995C10.2 6.1756 10.0314 5.76864 9.73135 5.46858C9.43129 5.16852 9.02432 4.99995 8.59998 4.99995C8.17563 4.99995 7.76866 5.16852 7.4686 5.46858C7.16855 5.76864 6.99998 6.1756 6.99998 6.59995C6.99998 7.0243 7.16855 7.43126 7.4686 7.73132C7.76866 8.03138 8.17563 8.19995 8.59998 8.19995Z" fill="#60A5FA"/>
</svg>
