<svg width="23" height="23" viewBox="0 0 23 23" fill="none" xmlns="http://www.w3.org/2000/svg">
<g clip-path="url(#clip0_3683_74703)">
<path d="M21.1855 4.10044L7.71151 1.24898C7.14145 1.12838 6.57642 1.49616 6.45581 2.06622L6.19983 3.71127L21.7465 7.00119L22.0025 5.35614C22.1231 4.7863 21.7555 4.22109 21.1855 4.10044Z" fill="white"/>
<path d="M15.5193 7.35025C15.3619 6.78349 14.7696 6.44849 14.2031 6.60562L11.6452 7.3157L5.61523 6.03955L4.95207 9.17295L0.808561 10.323C0.242021 10.4802 -0.0929776 11.0724 0.0641508 11.639L2.39926 20.0536C2.55664 20.6202 3.14895 20.9554 3.71549 20.7981L17.11 17.0809C17.6765 16.9235 18.0115 16.3315 17.8544 15.7647L17.4536 14.3202L18.9558 14.6378C19.5259 14.7586 20.0909 14.3908 20.2115 13.8207L21.1619 9.32951L15.7508 8.18446L15.5193 7.35025ZM17.0662 11.6269L17.3974 10.0613C17.4472 9.82688 17.6796 9.67569 17.914 9.72519L19.4796 10.0567C19.7142 10.1064 19.8654 10.3386 19.8159 10.5732L19.4847 12.1388C19.4349 12.3733 19.2025 12.5247 18.9681 12.475L17.4025 12.1437C17.1676 12.0938 17.0164 11.8613 17.0662 11.6269ZM1.04165 11.1627L4.74842 10.1344L13.4945 7.70728L14.4357 7.4458C14.4529 7.44116 14.47 7.43897 14.4868 7.43897C14.5622 7.43897 14.6525 7.4885 14.6789 7.58337L14.7894 7.98132L15.1356 9.22885L1.36079 13.0514L0.904075 11.4061C0.87546 11.3029 0.938441 11.1913 1.04165 11.1627ZM17.0144 15.9975C17.0321 16.0614 17.0136 16.1142 16.9948 16.1472C16.9764 16.1802 16.9407 16.2234 16.8769 16.241L3.48262 19.9581C3.46569 19.9627 3.44829 19.9651 3.43154 19.9651C3.35605 19.9651 3.26578 19.9154 3.2394 19.8205L1.8774 14.9124L15.6522 11.0896L16.4924 14.1167L17.0144 15.9975Z" fill="white"/>
<path d="M5.64689 16.333C5.58262 16.1019 5.34137 15.9654 5.11026 16.0295L3.54599 16.4637C3.31509 16.5278 3.17842 16.7693 3.24269 17.0004L3.67673 18.5644C3.741 18.7955 3.98225 18.932 4.21336 18.8677L5.77763 18.4337C6.00874 18.3696 6.1452 18.1282 6.08114 17.8971L5.64689 16.333Z" fill="white"/>
</g>
<defs>
<clipPath id="clip0_3683_74703">
<rect width="22" height="22" fill="white" transform="translate(0.0253906 0.03125)"/>
</clipPath>
</defs>
</svg>
