<svg width="15" height="11" viewBox="0 0 15 11" fill="none" xmlns="http://www.w3.org/2000/svg">
<path d="M7.53783 5.20853C8.73246 5.20853 9.7009 4.24009 9.7009 3.04546C9.7009 1.85083 8.73246 0.882385 7.53783 0.882385C6.3432 0.882385 5.37476 1.85083 5.37476 3.04546C5.37476 4.24009 6.3432 5.20853 7.53783 5.20853Z" fill="#D1D5DB"/>
<path d="M11.8639 6.4445C12.7172 6.4445 13.4089 5.75276 13.4089 4.89947C13.4089 4.04617 12.7172 3.35443 11.8639 3.35443C11.0106 3.35443 10.3188 4.04617 10.3188 4.89947C10.3188 5.75276 11.0106 6.4445 11.8639 6.4445Z" fill="#D1D5DB"/>
<path d="M3.25573 6.4445C4.10903 6.4445 4.80076 5.75276 4.80076 4.89947C4.80076 4.04617 4.10903 3.35443 3.25573 3.35443C2.40243 3.35443 1.71069 4.04617 1.71069 4.89947C1.71069 5.75276 2.40243 6.4445 3.25573 6.4445Z" fill="#D1D5DB"/>
<path d="M7.53788 5.8266C5.32289 5.8266 3.52075 7.62874 3.52075 9.84372C3.52075 10.0143 3.6592 10.1527 3.82977 10.1527H11.246C11.4166 10.1527 11.555 10.0143 11.555 9.84372C11.555 7.62874 9.75286 5.8266 7.53788 5.8266Z" fill="#D1D5DB"/>
<path d="M3.78835 7.12937C3.59924 7.08919 3.40703 7.06262 3.21174 7.06262C1.67844 7.06262 0.430664 8.3104 0.430664 9.8437C0.430664 10.0143 0.56911 10.1527 0.739683 10.1527H2.95959C2.92497 10.0557 2.90272 9.95248 2.90272 9.8437C2.90272 8.82954 3.23399 7.89324 3.78835 7.12937Z" fill="#D1D5DB"/>
<path d="M11.864 7.06262C11.6687 7.06262 11.4765 7.08919 11.2874 7.12937C11.8417 7.89324 12.173 8.82954 12.173 9.8437C12.173 9.95248 12.1507 10.0557 12.1161 10.1527H14.336C14.5066 10.1527 14.645 10.0143 14.645 9.8437C14.645 8.3104 13.3973 7.06262 11.864 7.06262Z" fill="#D1D5DB"/>
</svg>
