<svg width="32" height="24" viewBox="0 0 32 24" fill="none" xmlns="http://www.w3.org/2000/svg">
<path d="M28.5125 0.916504H11.0959C9.77063 0.916504 8.16354 1.63217 7.27688 2.617L0.845378 9.76417C-0.281955 11.0182 -0.281955 12.9815 0.845378 14.2355L7.27688 21.3827C8.16354 22.3675 9.77063 23.0832 11.0959 23.0832H28.5125C30.259 23.0832 31.6792 21.6629 31.6792 19.9165V4.08317C31.6792 2.33675 30.2574 0.916504 28.5125 0.916504ZM23.2986 14.0471C23.9177 14.6662 23.9177 15.6668 23.2986 16.2859C22.9899 16.5947 22.5845 16.7498 22.1792 16.7498C21.7739 16.7498 21.3685 16.5947 21.0598 16.2859L19.0125 14.2387L16.9669 16.2859C16.6565 16.5947 16.2512 16.7498 15.8459 16.7498C15.4405 16.7498 15.0352 16.5947 14.7265 16.2859C14.1074 15.6668 14.1074 14.6662 14.7265 14.0471L16.7737 11.9998L14.7265 9.95259C14.1074 9.3335 14.1074 8.33284 14.7265 7.71375C15.3455 7.09467 16.3462 7.09467 16.9653 7.71375L19.011 9.761L21.0582 7.71375C21.6773 7.09467 22.678 7.09467 23.297 7.71375C23.9161 8.33284 23.9161 9.3335 23.297 9.95259L21.2514 11.9998L23.2986 14.0471Z" fill="white"/>
</svg>
