<svg width="15" height="15" viewBox="0 0 15 15" fill="none" xmlns="http://www.w3.org/2000/svg">
<path d="M12.389 3.19699C12.3399 3.14792 12.29 3.09993 12.2397 3.05253L12.7252 2.4704L13.5207 3.13377L14.2712 2.23377L11.7802 0.156475L11.0297 1.05647L11.8252 1.71984L11.3227 2.32236C10.3594 1.68056 9.25236 1.29396 8.08594 1.19669V0H6.91406V1.19669C5.28826 1.33225 3.7778 2.03019 2.61103 3.19696C1.30512 4.50284 0.585938 6.23912 0.585938 8.08594C0.585938 9.93275 1.30512 11.669 2.61103 12.9749C3.9169 14.2808 5.65318 15 7.5 15C9.34682 15 11.0831 14.2808 12.389 12.9749C13.6949 11.669 14.4141 9.93275 14.4141 8.08594C14.4141 6.23912 13.6949 4.50284 12.389 3.19699ZM7.5 13.8281C4.33374 13.8281 1.75781 11.2522 1.75781 8.08594C1.75781 4.91968 4.33374 2.34375 7.5 2.34375C10.6663 2.34375 13.2422 4.91968 13.2422 8.08594C13.2422 11.2522 10.6663 13.8281 7.5 13.8281Z" fill="#374151"/>
<path d="M9.89903 4.18994L7.68296 6.92838C7.62331 6.91897 7.56223 6.91399 7.5 6.91399C6.85383 6.91399 6.32812 7.4397 6.32812 8.08587C6.32812 8.73204 6.85383 9.25774 7.5 9.25774C8.14617 9.25774 8.67188 8.73204 8.67188 8.08587C8.67188 7.93786 8.64401 7.7963 8.59371 7.66581L10.81 4.92714L9.89903 4.18994Z" fill="#374151"/>
</svg>
