<svg width="14" height="12" viewBox="0 0 14 12" fill="none" xmlns="http://www.w3.org/2000/svg">
<path d="M12.0295 2.40614C11.7879 2.40614 11.592 2.21029 11.592 1.96869C11.592 1.7271 11.7879 1.53125 12.0295 1.53125C12.2711 1.53125 12.4669 1.7271 12.4669 1.96869C12.4669 2.21029 12.2711 2.40614 12.0295 2.40614Z" fill="#FBBF24"/>
<path d="M10.4985 0.874889C10.2569 0.874889 10.061 0.679038 10.061 0.437444C10.061 0.19585 10.2569 0 10.4985 0C10.7401 0 10.9359 0.19585 10.9359 0.437444C10.9359 0.679038 10.7401 0.874889 10.4985 0.874889Z" fill="#FBBF24"/>
<path d="M0.069253 2.65253L0.120489 2.55008C0.196068 2.3983 0.327558 2.28173 0.487309 2.2249C0.647061 2.16807 0.822627 2.1754 0.977087 2.24535L4.24646 3.73813L4.24373 3.7443C4.34577 3.77149 4.44107 3.8195 4.52364 3.88532C4.60622 3.95113 4.67428 4.03333 4.72353 4.12673C4.77279 4.22013 4.80218 4.32272 4.80985 4.42804C4.81752 4.53335 4.80331 4.63911 4.76812 4.73867L4.83245 4.78157C5.69069 4.35232 7.77216 4.69837 9.71692 5.37485C9.83119 5.41459 9.94511 5.45554 10.0587 5.49772C10.2736 4.70149 9.71742 4.12196 9.68715 4.09125L9.99703 3.78253C10.209 4.01173 10.3675 4.28503 10.4612 4.5828C10.5719 4.93159 10.575 5.30563 10.47 5.65618C10.82 5.79592 11.1563 5.94364 11.4745 6.09715C11.6509 5.44203 11.6666 4.76606 11.6426 4.2776C11.6376 4.17888 11.6525 4.08017 11.6863 3.98728C11.7201 3.89439 11.7721 3.8092 11.8393 3.73673C11.9065 3.66427 11.9876 3.60598 12.0777 3.56532C12.1678 3.52465 12.2651 3.50243 12.3639 3.49995C12.4627 3.49748 12.561 3.5148 12.653 3.55091C12.745 3.58702 12.8289 3.64117 12.8997 3.71018C12.9704 3.7792 13.0267 3.86168 13.0651 3.95276C13.1034 4.04384 13.1232 4.14169 13.1232 4.24053V5.78744C13.1233 5.81877 13.1358 5.8488 13.1579 5.87094C13.1801 5.89308 13.2101 5.90552 13.2415 5.90555C13.3147 5.90553 13.3872 5.91999 13.4549 5.9481C13.5225 5.97621 13.5839 6.01742 13.6356 6.06936C13.6872 6.1213 13.7281 6.18294 13.7558 6.25074C13.7836 6.31853 13.7976 6.39114 13.7972 6.46439C13.7875 6.81927 13.7242 7.17066 13.6096 7.50665C13.9443 7.86495 14.064 8.18972 13.9653 8.47349C13.5979 9.52986 12.7537 10.3467 11.5882 10.7734C11.0153 10.9803 10.4105 11.0849 9.80141 11.0823C9.13628 11.08 8.47623 10.9664 7.84865 10.746C6.58715 10.3073 5.53969 9.49074 4.89927 8.44691C4.25018 7.38904 4.09508 6.22467 4.46251 5.16829C4.46963 5.14818 4.47785 5.12846 4.48711 5.10924C4.39491 5.17452 4.28936 5.2185 4.17809 5.238C4.06681 5.25751 3.9526 5.25206 3.84369 5.22205L3.84109 5.22735L3.80842 5.21144C3.7421 5.18973 3.67908 5.15904 3.62111 5.1202L0.371937 3.53745C0.293488 3.49975 0.223322 3.44683 0.165524 3.38175C0.107727 3.31668 0.0634537 3.24075 0.0352821 3.1584C0.00710964 3.07605 -0.00439739 2.98892 0.00143051 2.90208C0.00725746 2.81524 0.030304 2.73043 0.0692263 2.65258L0.069253 2.65253ZM13.5521 8.32976C13.5824 8.24279 13.5323 8.11014 13.4156 7.95446C13.2865 8.19975 13.1101 8.41702 12.8965 8.59373C12.9927 8.58476 13.0881 8.56923 13.1821 8.54725C13.3893 8.497 13.5206 8.41982 13.552 8.32987V8.32973L13.5521 8.32976ZM5.71524 5.93098C5.76133 6.32304 5.83811 6.4038 5.84133 6.40706L5.83709 6.41129C6.01817 6.5346 6.21677 6.65757 6.43038 6.77894C6.28765 6.49642 6.19336 6.19195 6.15145 5.87821C6.14424 5.82524 6.11808 5.77667 6.07783 5.74149C6.03758 5.70631 5.98594 5.68689 5.93248 5.68683C5.90161 5.68682 5.87108 5.69335 5.84291 5.70599C5.81473 5.71862 5.78956 5.73708 5.76903 5.76015C5.7485 5.78321 5.73309 5.81036 5.72381 5.83981C5.71453 5.86926 5.71159 5.90034 5.71518 5.93101L5.71524 5.93098ZM10.0104 6.48301L9.67433 6.20296C9.75375 6.10834 9.82509 6.00722 9.88758 5.90066C9.78322 5.86214 9.67815 5.82446 9.57317 5.78791C8.37703 5.37187 7.21097 5.10793 6.29009 5.04477C5.86159 5.01541 5.5004 5.03252 5.2457 5.09434C5.03843 5.14459 4.90706 5.22185 4.87575 5.31189C4.84445 5.40192 4.89954 5.54401 5.03083 5.71204C5.10682 5.8069 5.19028 5.89552 5.28042 5.97705C5.26195 5.80525 5.31189 5.63309 5.41943 5.49785C5.52696 5.36261 5.68344 5.27516 5.85498 5.25444C6.02652 5.23372 6.19931 5.28139 6.33596 5.38714C6.4726 5.49289 6.5621 5.64821 6.58507 5.81946C6.69618 6.63723 7.17961 7.1138 7.31445 7.23246C7.81713 7.4652 8.33119 7.67255 8.85467 7.85374C9.0778 7.93135 9.2994 8.00354 9.51947 8.07033C10.3836 7.90355 10.9946 7.38135 11.3368 6.51609C11.0105 6.35697 10.6631 6.20397 10.301 6.05951C10.2182 6.20985 10.1209 6.3517 10.0104 6.48303L10.0104 6.48301ZM13.3255 6.37794C13.3146 6.36682 13.3015 6.358 13.287 6.352C13.2726 6.346 13.2571 6.34294 13.2415 6.343C13.0941 6.34283 12.9529 6.28423 12.8487 6.18006C12.7445 6.07588 12.6859 5.93463 12.6858 5.78731V4.24053C12.6857 4.16006 12.6537 4.0829 12.5968 4.026C12.5399 3.96909 12.4628 3.9371 12.3823 3.93705C12.3412 3.93707 12.3005 3.94546 12.2627 3.9617C12.2249 3.97794 12.1907 4.0017 12.1624 4.03153C12.1341 4.06136 12.1121 4.09664 12.0978 4.13522C12.0836 4.17381 12.0773 4.21489 12.0794 4.25598C12.1106 4.89145 12.0781 5.82632 11.7456 6.67127C11.5541 7.15793 11.2832 7.55841 10.9405 7.86148C10.7454 8.03359 10.5257 8.17574 10.2888 8.28328C10.7772 8.40795 11.2731 8.50125 11.7734 8.56262C11.8511 8.57164 11.9936 8.5332 11.9936 8.5332C12.4821 8.45178 12.8531 8.14314 13.0963 7.61588C13.2587 7.25205 13.3482 6.85991 13.3597 6.46165C13.3598 6.44613 13.3569 6.43073 13.351 6.41636C13.3452 6.40199 13.3365 6.38893 13.3255 6.37794ZM4.08554 4.80937L4.0343 4.77522C4.0101 4.75943 3.98926 4.73899 3.973 4.71509C3.95674 4.6912 3.94537 4.66431 3.93957 4.636C3.93376 4.60768 3.93362 4.5785 3.93916 4.55013C3.9447 4.52176 3.95581 4.49477 3.97184 4.47072C3.98787 4.44667 4.00852 4.42604 4.03257 4.41001C4.05663 4.39399 4.08362 4.38289 4.112 4.37736C4.14037 4.37183 4.16955 4.37198 4.19787 4.3778C4.22618 4.38363 4.25306 4.395 4.27695 4.41127L4.37395 4.47593C4.37269 4.42055 4.35742 4.3664 4.32957 4.31852C4.30171 4.27064 4.26219 4.2306 4.21467 4.20213C4.16716 4.17365 4.11321 4.15768 4.05786 4.1557C4.0025 4.15371 3.94755 4.16579 3.89812 4.19079C3.84869 4.21579 3.8064 4.2529 3.77519 4.29866C3.74399 4.34442 3.72488 4.39735 3.71966 4.45249C3.71444 4.50764 3.72327 4.5632 3.74533 4.61401C3.76739 4.66482 3.80196 4.70921 3.84582 4.74304L3.96612 4.80169C4.00502 4.81196 4.04555 4.81457 4.08546 4.8094L4.08554 4.80937Z" fill="#FBBF24"/>
<path d="M11.1547 2.84326H10.7172V3.28071H11.1547V2.84326Z" fill="#FBBF24"/>
<path d="M11.3734 4.81201H10.936V5.24946H11.3734V4.81201Z" fill="#FBBF24"/>
<path d="M10.061 6.78027H9.62359V7.21772H10.061V6.78027Z" fill="#FBBF24"/>
<path d="M13.5605 2.62451H13.1231V3.06196H13.5605V2.62451Z" fill="#FBBF24"/>
<path d="M11.7133 8.49362L11.4707 8.12967C12.0053 7.77329 12.0288 7.44496 12.0295 7.43115C12.0293 7.43484 12.0295 7.43676 12.0295 7.43676H12.4669C12.4669 7.49352 12.4458 8.00543 11.7133 8.49362Z" fill="#FBBF24"/>
<path d="M9.84234 2.62471C9.84234 2.40167 9.74318 2.13401 9.55557 1.85068C9.46522 1.714 9.36298 1.58556 9.25004 1.46685L9.4049 1.31238L9.55956 1.15771C9.58895 1.18713 10.2798 1.88652 10.2798 2.62471H9.84234Z" fill="#FBBF24"/>
</svg>
