<svg width="14" height="14" viewBox="0 0 14 14" fill="none" xmlns="http://www.w3.org/2000/svg">
<path d="M7.3761 0H6.58393L6.15546 1.75305H2.76522L2.33677 0H1.5446C1.0621 0 0.669556 0.392516 0.669556 0.87502V13.125C0.669556 13.6075 1.0621 14 1.54458 14H7.37608C7.8188 14 8.18575 13.6695 8.24325 13.2423C5.41095 13.028 3.17193 10.655 3.17193 7.76876C3.17193 4.87989 5.41508 2.50508 8.2511 2.29461V0.87502C8.25112 0.392516 7.85858 0 7.3761 0Z" fill="#0D9488"/>
<path d="M5.51155 0.932743L5.73951 0H3.18127L3.40924 0.932743H5.51155Z" fill="#0D9488"/>
<path d="M8.66133 3.09961C6.08682 3.09961 3.99231 5.19415 3.99231 7.76865C3.99231 10.3432 6.08682 12.4377 8.66133 12.4377C11.2358 12.4377 13.3304 10.3432 13.3304 7.76865C13.3304 5.19415 11.2358 3.09961 8.66133 3.09961ZM5.35905 9.52865V8.70834H6.07838V8.28033C6.07838 6.99563 7.02115 5.92696 8.25117 5.72989V4.90467H9.07148V5.72989C10.3015 5.92696 11.2443 6.99563 11.2443 8.28033V8.70834H11.9636V9.52865H5.35905Z" fill="#0D9488"/>
<path d="M8.66136 6.51758C7.6894 6.51758 6.89868 7.3083 6.89868 8.28025V8.70826H10.424V8.28025C10.424 7.3083 9.63328 6.51758 8.66136 6.51758Z" fill="#0D9488"/>
</svg>
