<svg width="14" height="13" viewBox="0 0 14 13" fill="none" xmlns="http://www.w3.org/2000/svg">
<path d="M5.98274 1.50322C5.98274 1.26593 5.76896 1.07373 5.50502 1.07373H5.02729C4.76334 1.07373 4.54956 1.26593 4.54956 1.50322V1.71797H5.98274V1.50322Z" fill="#10B981"/>
<path d="M10.0435 1.34066C10.0435 1.22599 9.99379 1.11797 9.9035 1.0368L9.56575 0.733145V0H8.6103V0.733145L8.27254 1.0368C8.18225 1.11797 8.13257 1.22577 8.13257 1.34066V3.43595H10.0435V1.34066Z" fill="#10B981"/>
<path d="M6.46045 6.0127H7.4159V12.4551H6.46045V6.0127Z" fill="#10B981"/>
<path d="M5.26619 3.43594C6.05659 3.43594 6.69937 2.85806 6.69937 2.14746H3.83301C3.83301 2.85806 4.47579 3.43594 5.26619 3.43594Z" fill="#10B981"/>
<path d="M3.11631 4.72422H10.7599C10.8916 4.72422 10.9988 4.6278 10.9988 4.50948V4.07998C10.9988 3.96166 10.8916 3.86523 10.7599 3.86523H3.11631C2.98469 3.86523 2.87744 3.96166 2.87744 4.07998V4.50948C2.87744 4.6278 2.98469 4.72422 3.11631 4.72422Z" fill="#10B981"/>
<path d="M8.84916 5.15381H5.02734V5.36856C5.02734 5.48688 5.13459 5.5833 5.26621 5.5833H5.9828H7.89371H8.6103C8.74191 5.5833 8.84916 5.48688 8.84916 5.36856V5.15381Z" fill="#10B981"/>
<path d="M8.84888 9.23409V9.44884H10.7598H13.6262V8.58984H9.56547C9.17039 8.58984 8.84888 8.8789 8.84888 9.23409Z" fill="#10B981"/>
<path d="M9.32666 9.87842H10.2821V12.4554H9.32666V9.87842Z" fill="#10B981"/>
<path d="M13.3875 3.86523C12.9924 3.86523 12.6709 4.15428 12.6709 4.50947V8.16017H13.6264V3.86523H13.3875Z" fill="#10B981"/>
<path d="M12.6709 9.87842H13.6264V12.4554H12.6709V9.87842Z" fill="#10B981"/>
<path d="M1.20545 4.50947C1.20545 4.15428 0.883944 3.86523 0.488864 3.86523H0.25V8.16017H1.20545V4.50947Z" fill="#10B981"/>
<path d="M4.31068 8.58984H0.25V9.44884H3.11636H5.02727V9.23409C5.02727 8.8789 4.70576 8.58984 4.31068 8.58984Z" fill="#10B981"/>
<path d="M3.59399 9.87842H4.54945V12.4554H3.59399V9.87842Z" fill="#10B981"/>
<path d="M0.25 9.87842H1.20545V12.4554H0.25V9.87842Z" fill="#10B981"/>
</svg>
