<svg width="13" height="14" viewBox="0 0 13 14" fill="none" xmlns="http://www.w3.org/2000/svg">
<path d="M2.2915 3.17554C2.2915 2.96378 2.46378 2.7915 2.67554 2.7915V2.02979C2.04377 2.02979 1.52979 2.54377 1.52979 3.17554H2.2915Z" fill="#2DD4BF"/>
<path d="M2.67554 1.26172V0.5C1.20024 0.5 0 1.70024 0 3.17554H0.761719C0.761719 2.12025 1.62025 1.26172 2.67554 1.26172Z" fill="#2DD4BF"/>
<path d="M10.7085 3.17554H11.4702C11.4702 2.54377 10.9562 2.02979 10.3245 2.02979V2.7915C10.5362 2.7915 10.7085 2.96378 10.7085 3.17554Z" fill="#2DD4BF"/>
<path d="M12.2383 3.17554H13C13 1.70024 11.7998 0.5 10.3245 0.5V1.26172C11.3797 1.26172 12.2383 2.12025 12.2383 3.17554Z" fill="#2DD4BF"/>
<path d="M7.3125 2.95287V2.02649H7.91832V1.26477H5.08168V2.02649H5.6875V2.95287C2.50946 3.17437 0 5.82231 0 9.05665V9.86915H13V9.05665C13 5.82231 10.4905 3.17437 7.3125 2.95287Z" fill="#2DD4BF"/>
<path d="M0 12.2559H13V13.5H0V12.2559Z" fill="#2DD4BF"/>
<path d="M0.8125 10.6309H12.1875V11.4941H0.8125V10.6309Z" fill="#2DD4BF"/>
</svg>
