<svg width="18" height="13" viewBox="0 0 18 13" fill="none" xmlns="http://www.w3.org/2000/svg">
<path d="M0 8.4668V9.55465H6.72137V10.1763H1.16556L1.70948 10.9922H9.86837C9.28559 10.3317 9.15608 9.04957 9.16903 8.4668H0Z" fill="#2DD4BF"/>
<path fill-rule="evenodd" clip-rule="evenodd" d="M13.6369 12.5075C15.7183 12.5075 17.4055 10.8202 17.4055 8.73884C17.4055 8.64805 17.4023 8.558 17.396 8.46881L14.6822 11.166C14.6316 11.2373 14.5737 11.305 14.5086 11.3681C13.9364 11.9224 13.0233 11.9079 12.469 11.3358L10.7196 9.53008C10.1653 8.95794 10.1798 8.04479 10.7519 7.4905C11.3241 6.93621 12.2372 6.95067 12.7915 7.52281L13.5097 8.26412L15.5663 6.2201C15.7219 6.06545 15.904 5.9536 16.0978 5.88451C15.4375 5.31476 14.5774 4.97021 13.6369 4.97021C11.5556 4.97021 9.86829 6.65749 9.86829 8.73884C9.86829 10.8202 11.5556 12.5075 13.6369 12.5075Z" fill="#2DD4BF"/>
<path fill-rule="evenodd" clip-rule="evenodd" d="M17.4116 6.57266C17.1116 6.27265 16.6252 6.27265 16.3252 6.57266L13.5452 9.35264L12.1342 7.9808C11.8373 7.6922 11.3627 7.69889 11.0741 7.99574C10.7855 8.2926 10.7922 8.76722 11.089 9.05583L12.9951 10.9089C13.0074 10.9231 13.0203 10.937 13.0338 10.9505C13.3338 11.2505 13.8202 11.2505 14.1202 10.9505L17.4116 7.65909C17.7116 7.35908 17.7116 6.87267 17.4116 6.57266Z" fill="#2DD4BF"/>
<path fill-rule="evenodd" clip-rule="evenodd" d="M6.28554 1.07208C4.80925 1.27595 3.42959 1.95578 2.36377 3.0216C1.07413 4.31124 0.349609 6.06038 0.349609 7.88421L7.22639 7.88422H9.27004C9.50332 6.82581 10.1254 5.9133 10.9789 5.30412C10.8655 5.1937 10.6101 4.97211 10.3734 4.85377L10.6842 4.3487C10.8903 4.46464 11.3476 4.74972 11.536 4.96687C12.047 4.70808 12.6166 4.54806 13.2195 4.51193C12.915 3.97065 12.5359 3.46853 12.089 3.0216C11.0426 1.97519 9.69366 1.30083 8.24778 1.08369C8.20476 0.903528 8.11263 0.737086 7.97952 0.603971C7.79008 0.414532 7.53315 0.308105 7.26524 0.308105C6.99733 0.308105 6.74039 0.414531 6.55095 0.603971C6.4207 0.734222 6.3297 0.896381 6.28554 1.07208ZM8.70275 3.57166L8.62504 4.23214C9.20782 4.27099 9.64814 4.49115 9.75175 4.58181L10.0237 3.99903C9.68181 3.78146 9.13012 3.61051 8.70275 3.57166Z" fill="#2DD4BF"/>
</svg>
