<svg width="16" height="16" viewBox="0 0 16 16" fill="none" xmlns="http://www.w3.org/2000/svg">
<path fill-rule="evenodd" clip-rule="evenodd" d="M13.3656 4.23447C13.5155 4.3845 13.5998 4.58794 13.5998 4.80007C13.5998 5.0122 13.5155 5.21565 13.3656 5.36567L6.96556 11.7657C6.81554 11.9156 6.61209 11.9999 6.39996 11.9999C6.18783 11.9999 5.98438 11.9156 5.83436 11.7657L2.63436 8.56567C2.48863 8.41479 2.408 8.21271 2.40982 8.00295C2.41164 7.7932 2.49578 7.59255 2.6441 7.44422C2.79243 7.29589 2.99308 7.21176 3.20284 7.20993C3.4126 7.20811 3.61468 7.28875 3.76556 7.43447L6.39996 10.0689L12.2344 4.23447C12.3844 4.0845 12.5878 4.00024 12.8 4.00024C13.0121 4.00024 13.2155 4.0845 13.3656 4.23447Z" fill="#10B981"/>
</svg>
