<svg width="17" height="17" viewBox="0 0 17 17" fill="none" xmlns="http://www.w3.org/2000/svg">
<path fill-rule="evenodd" clip-rule="evenodd" d="M17 8.5C17 13.1944 13.1944 17 8.5 17C3.80558 17 0 13.1944 0 8.5C0 3.80558 3.80558 0 8.5 0C13.1944 0 17 3.80558 17 8.5ZM9.5625 12.75C9.5625 13.3368 9.0868 13.8125 8.5 13.8125C7.9132 13.8125 7.4375 13.3368 7.4375 12.75C7.4375 12.1632 7.9132 11.6875 8.5 11.6875C9.0868 11.6875 9.5625 12.1632 9.5625 12.75ZM8.5 3.1875C7.9132 3.1875 7.4375 3.6632 7.4375 4.25V8.5C7.4375 9.0868 7.9132 9.5625 8.5 9.5625C9.0868 9.5625 9.5625 9.0868 9.5625 8.5V4.25C9.5625 3.6632 9.0868 3.1875 8.5 3.1875Z" fill="white"/>
</svg>
