<svg width="11" height="11" viewBox="0 0 11 11" fill="none" xmlns="http://www.w3.org/2000/svg">
<path fill-rule="evenodd" clip-rule="evenodd" d="M4.20004 1.60005C2.7641 1.60005 1.60004 2.76411 1.60004 4.20005C1.60004 5.63599 2.7641 6.80005 4.20004 6.80005C5.63597 6.80005 6.80003 5.63599 6.80003 4.20005C6.80003 2.76411 5.63597 1.60005 4.20004 1.60005ZM0.300049 4.20005C0.300049 2.04614 2.04613 0.300049 4.20004 0.300049C6.35394 0.300049 8.10003 2.04614 8.10003 4.20005C8.10003 5.04234 7.83301 5.82226 7.37901 6.4598L10.5096 9.59043C10.7635 9.84427 10.7635 10.2558 10.5096 10.5097C10.2558 10.7635 9.84424 10.7635 9.5904 10.5097L6.45978 7.37903C5.82225 7.83303 5.04232 8.10005 4.20004 8.10005C2.04613 8.10005 0.300049 6.35396 0.300049 4.20005Z" fill="white"/>
</svg>
