<svg width="18" height="18" viewBox="0 0 18 18" fill="none" xmlns="http://www.w3.org/2000/svg">
<path d="M13.9445 10.6383C12.4639 10.6383 11.2637 11.8386 11.2637 13.3192C11.2637 14.7998 12.4639 16 13.9445 16C15.4251 16 16.6254 14.7998 16.6254 13.3192C16.6254 11.8386 15.4251 10.6383 13.9445 10.6383ZM14.3913 13.3192C14.3913 13.5659 14.1913 13.766 13.9445 13.766H13.0509C12.8041 13.766 12.6041 13.5659 12.6041 13.3192C12.6041 13.0724 12.8041 12.8723 13.0509 12.8723H13.4977V12.4255C13.4977 12.1788 13.6978 11.9787 13.9445 11.9787C14.1913 11.9787 14.3913 12.1788 14.3913 12.4255V13.3192Z" fill="white"/>
<path d="M9.54903 2.99272C9.45436 2.42935 8.96463 2 8.37437 2C7.7841 2 7.29437 2.42935 7.19971 2.99272C7.58176 2.92787 7.97412 2.89362 8.37437 2.89362C8.77462 2.89362 9.16697 2.92787 9.54903 2.99272Z" fill="white"/>
<path d="M1.37451 11.6808C1.37451 12.4211 1.97464 13.0212 2.71494 13.0212H10.3828C10.4378 12.3579 10.6746 11.7455 11.0432 11.234H1.82132C1.57456 11.234 1.37451 11.4341 1.37451 11.6808Z" fill="white"/>
<path d="M13.9447 9.74468C14.1264 9.74468 14.3049 9.75841 14.4795 9.78471C14.4211 6.46772 11.7051 3.78723 8.37445 3.78723C5.00739 3.78723 2.26807 6.52655 2.26807 9.89361V10.3404H11.9711C12.5371 9.96424 13.2156 9.74468 13.9447 9.74468Z" fill="white"/>
</svg>
