<svg width="18" height="18" viewBox="0 0 18 18" fill="none" xmlns="http://www.w3.org/2000/svg">
<mask id="mask0_3683_81411" style="mask-type:alpha" maskUnits="userSpaceOnUse" x="0" y="0" width="18" height="18">
<rect width="18" height="18" fill="#D9D9D9"/>
</mask>
<g mask="url(#mask0_3683_81411)">
<path fill-rule="evenodd" clip-rule="evenodd" d="M8.14947 5.10938C8.68655 5.10938 9.12194 4.63718 9.12194 4.05469C9.12194 3.4722 8.68655 3 8.14947 3C7.61239 3 7.177 3.4722 7.177 4.05469C7.177 4.63718 7.61239 5.10938 8.14947 5.10938ZM8.13866 5.71875C7.58368 5.71875 7.13378 6.20669 7.13378 6.80859V10.0195C7.13378 10.6212 7.58339 11.1091 8.13814 11.1094L5.76703 11.1094L5.25592 6.0269C5.21821 5.65189 4.90733 5.38104 4.56156 5.42194C4.21579 5.46284 3.96605 5.8 4.00377 6.17501L4.5636 11.742C4.56262 11.7576 4.56212 11.7732 4.56212 11.7891C4.56212 12.1644 4.84271 12.4688 5.18883 12.4688L5.18883 14.6367C5.18883 14.8374 5.3388 15 5.52379 15C5.70879 15 5.85875 14.8374 5.85875 14.6367L5.85876 12.4688H8.47363L8.47363 14.6367C8.47363 14.8374 8.62359 15 8.80859 15C8.99358 15 9.14355 14.8374 9.14355 14.6367L9.14355 12.322C9.28837 12.1975 9.38127 12.0051 9.38127 11.7891C9.38127 11.4137 9.10068 11.1094 8.75456 11.1094H10.3754L10.3754 14.317C10.3754 14.6942 10.6573 15 11.0051 15H11.107C11.4548 15 11.7368 14.6942 11.7368 14.317V10.4263V10.3158C11.7368 9.93862 11.4548 9.63281 11.107 9.63281H11.0051H9.14355V6.80859C9.14355 6.20669 8.69365 5.71875 8.13866 5.71875ZM8.15213 11.1094H8.13921C8.1406 11.1094 8.142 11.1094 8.14339 11.1094C8.1444 11.1094 8.14541 11.1094 8.14642 11.1093C8.14832 11.1094 8.15022 11.1094 8.15213 11.1094ZM15 5.48438C15 6.85646 13.9744 7.96875 12.7093 7.96875C11.4442 7.96875 10.4186 6.85646 10.4186 5.48438C10.4186 4.11229 11.4442 3 12.7093 3C13.9744 3 15 4.11229 15 5.48438ZM12.6661 4.38281C12.5348 4.38281 12.4283 4.49824 12.4283 4.64062V5.55469C12.4283 5.57726 12.431 5.59916 12.4361 5.62003C12.4383 5.71384 12.4841 5.80421 12.5645 5.85457L13.1227 6.20406C13.2457 6.28105 13.4029 6.23536 13.4739 6.102C13.5449 5.96865 13.5027 5.79812 13.3798 5.72113L12.9038 5.42308V4.64062C12.9038 4.49824 12.7974 4.38281 12.6661 4.38281Z" fill="#F9FAFB"/>
</g>
</svg>
