<svg width="17" height="17" viewBox="0 0 17 17" fill="none" xmlns="http://www.w3.org/2000/svg">
<g clip-path="url(#clip0_1645_11512)">
<path d="M16.4719 6.29575C15.8529 5.77533 14.9058 5.83732 14.3684 6.47814L14.0454 6.86024L16.3346 8.781L16.643 8.4003C17.1734 7.76944 17.1063 6.82727 16.4719 6.29575Z" fill="white"/>
<path d="M10.0066 11.6388L9.83623 11.8404C9.68838 12.0175 9.58186 12.229 9.52837 12.4533L9.06536 14.391C9.02159 14.5743 9.08531 14.7669 9.22974 14.888C9.37033 15.0062 9.56862 15.0405 9.74775 14.9639L11.576 14.1711C11.7876 14.0792 11.9773 13.9377 12.1251 13.7621L12.2961 13.5598L10.0066 11.6388Z" fill="white"/>
<path d="M13.4027 7.62067L10.6494 10.8784L12.9388 12.7994L15.6919 9.54143L13.4027 7.62067Z" fill="white"/>
<path d="M12.485 2.20814L10.593 0.410494C10.4141 0.240926 10.1941 0.141051 9.96216 0.0761719V2.98829H12.919C12.8572 2.69245 12.7064 2.41839 12.485 2.20814Z" fill="white"/>
<path d="M8.55946 12.2218C8.64848 11.8492 8.82598 11.4966 9.07208 11.2018L12.9504 6.6127V3.98438H9.46411C9.18882 3.98438 8.96606 3.76162 8.96606 3.48633V0H1.49536C0.671459 0 0.0012207 0.670238 0.0012207 1.49414V15.5059C0.0012207 16.3298 0.671459 17 1.49536 17H11.4563C12.2802 17 12.9504 16.3298 12.9504 15.5059V14.3285L12.8858 14.405C12.6411 14.6964 12.3255 14.9313 11.9738 15.0845L10.1441 15.8778C9.62837 16.1005 9.03141 16.0216 8.58964 15.6517C8.15335 15.2854 7.96416 14.7139 8.09644 14.1595L8.55946 12.2218ZM2.49146 2.98828H7.47192C7.74721 2.98828 7.96997 3.21104 7.96997 3.48633C7.96997 3.76162 7.74721 3.98438 7.47192 3.98438H2.49146C2.21617 3.98438 1.99341 3.76162 1.99341 3.48633C1.99341 3.21104 2.21617 2.98828 2.49146 2.98828ZM2.49146 6.00977H10.4602C10.7355 6.00977 10.9583 6.23253 10.9583 6.50781C10.9583 6.7831 10.7355 7.00586 10.4602 7.00586H2.49146C2.21617 7.00586 1.99341 6.7831 1.99341 6.50781C1.99341 6.23253 2.21617 6.00977 2.49146 6.00977ZM6.47583 12.9824H2.49146C2.21617 12.9824 1.99341 12.7597 1.99341 12.4844C1.99341 12.2091 2.21617 11.9863 2.49146 11.9863H6.47583C6.75112 11.9863 6.97388 12.2091 6.97388 12.4844C6.97388 12.7597 6.75112 12.9824 6.47583 12.9824ZM2.49146 9.99414C2.21617 9.99414 1.99341 9.77138 1.99341 9.49609C1.99341 9.22081 2.21617 8.99805 2.49146 8.99805H8.46802C8.7433 8.99805 8.96606 9.22081 8.96606 9.49609C8.96606 9.77138 8.7433 9.99414 8.46802 9.99414H2.49146Z" fill="white"/>
</g>
<defs>
<clipPath id="clip0_1645_11512">
<rect width="17" height="17" fill="white"/>
</clipPath>
</defs>
</svg>
