<svg width="15" height="15" viewBox="0 0 15 15" fill="none" xmlns="http://www.w3.org/2000/svg">
<path d="M7.5 3.75C7.00288 3.75052 6.52627 3.94823 6.17475 4.29975C5.82323 4.65127 5.62552 5.12788 5.625 5.625H9.375C9.37448 5.12788 9.17677 4.65127 8.82525 4.29975C8.47373 3.94823 7.99712 3.75052 7.5 3.75Z" fill="white"/>
<path d="M12.45 0.32344C12.3863 0.281557 12.3135 0.255459 12.2377 0.247307C12.1619 0.239156 12.0852 0.249185 12.0141 0.276565L11.25 0.581252L10.4813 0.276565C10.3695 0.234376 10.2462 0.234376 10.1344 0.276565L9.37031 0.581252L8.60625 0.276565C8.49448 0.234376 8.37115 0.234376 8.25938 0.276565L7.49531 0.581252L6.73125 0.276565C6.61948 0.234376 6.49615 0.234376 6.38438 0.276565L5.625 0.581252L4.86094 0.276565C4.74916 0.234376 4.62584 0.234376 4.51406 0.276565L3.75 0.581252L2.98594 0.276565C2.9148 0.248157 2.83777 0.23763 2.76161 0.245906C2.68545 0.254182 2.61249 0.281007 2.54911 0.324033C2.48572 0.367059 2.43386 0.424972 2.39806 0.492698C2.36226 0.560424 2.34361 0.635896 2.34375 0.712502V14.2875C2.34355 14.3491 2.35554 14.4102 2.37903 14.4671C2.40252 14.5241 2.43704 14.5758 2.4806 14.6194C2.52417 14.663 2.57592 14.6975 2.63289 14.721C2.68985 14.7445 2.75089 14.7564 2.8125 14.7563C2.87194 14.7572 2.93094 14.746 2.98594 14.7234L3.75 14.4188L4.51875 14.7234C4.63053 14.7656 4.75385 14.7656 4.86563 14.7234L5.62969 14.4188L6.39375 14.7234C6.50553 14.7656 6.62885 14.7656 6.74063 14.7234L7.50469 14.4188L8.26875 14.7234C8.38053 14.7656 8.50385 14.7656 8.61563 14.7234L9.375 14.4188L9.45938 14.4516C9.40231 14.3299 9.37347 14.1969 9.375 14.0625V12.1875H6.57656C6.45224 12.1875 6.33302 12.1381 6.24511 12.0502C6.1572 11.9623 6.10781 11.8431 6.10781 11.7188C6.10781 11.5944 6.1572 11.4752 6.24511 11.3873C6.33302 11.2994 6.45224 11.25 6.57656 11.25H9.375V10.3125H6.57656C6.45224 10.3125 6.33302 10.2631 6.24511 10.1752C6.1572 10.0873 6.10781 9.96807 6.10781 9.84375C6.10781 9.71943 6.1572 9.6002 6.24511 9.5123C6.33302 9.42439 6.45224 9.375 6.57656 9.375H12.6563V0.712502C12.6554 0.635901 12.6362 0.560615 12.6004 0.492932C12.5645 0.425249 12.5129 0.367134 12.45 0.32344ZM5.15625 12.1875H4.6875C4.56318 12.1875 4.44395 12.1381 4.35605 12.0502C4.26814 11.9623 4.21875 11.8431 4.21875 11.7188C4.21875 11.5944 4.26814 11.4752 4.35605 11.3873C4.44395 11.2994 4.56318 11.25 4.6875 11.25H5.15625C5.28057 11.25 5.3998 11.2994 5.48771 11.3873C5.57562 11.4752 5.625 11.5944 5.625 11.7188C5.625 11.8431 5.57562 11.9623 5.48771 12.0502C5.3998 12.1381 5.28057 12.1875 5.15625 12.1875ZM5.15625 10.3125H4.6875C4.56318 10.3125 4.44395 10.2631 4.35605 10.1752C4.26814 10.0873 4.21875 9.96807 4.21875 9.84375C4.21875 9.71943 4.26814 9.6002 4.35605 9.5123C4.44395 9.42439 4.56318 9.375 4.6875 9.375H5.15625C5.28057 9.375 5.3998 9.42439 5.48771 9.5123C5.57562 9.6002 5.625 9.71943 5.625 9.84375C5.625 9.96807 5.57562 10.0873 5.48771 10.1752C5.3998 10.2631 5.28057 10.3125 5.15625 10.3125ZM5.15625 8.4375H4.6875C4.56318 8.4375 4.44395 8.38812 4.35605 8.30021C4.26814 8.2123 4.21875 8.09307 4.21875 7.96875C4.21875 7.84443 4.26814 7.7252 4.35605 7.6373C4.44395 7.54939 4.56318 7.5 4.6875 7.5H5.15625C5.28057 7.5 5.3998 7.54939 5.48771 7.6373C5.57562 7.7252 5.625 7.84443 5.625 7.96875C5.625 8.09307 5.57562 8.2123 5.48771 8.30021C5.3998 8.38812 5.28057 8.4375 5.15625 8.4375ZM10.3125 8.4375H6.57656C6.45224 8.4375 6.33302 8.38812 6.24511 8.30021C6.1572 8.2123 6.10781 8.09307 6.10781 7.96875C6.10781 7.84443 6.1572 7.7252 6.24511 7.6373C6.33302 7.54939 6.45224 7.5 6.57656 7.5H10.3125C10.4368 7.5 10.5561 7.54939 10.644 7.6373C10.7319 7.7252 10.7813 7.84443 10.7813 7.96875C10.7813 8.09307 10.7319 8.2123 10.644 8.30021C10.5561 8.38812 10.4368 8.4375 10.3125 8.4375ZM10.3125 6.5625H4.6875C4.56318 6.5625 4.44395 6.51312 4.35605 6.42521C4.26814 6.3373 4.21875 6.21807 4.21875 6.09375C4.21875 5.96943 4.26814 5.8502 4.35605 5.7623C4.44395 5.67439 4.56318 5.625 4.6875 5.625C4.68881 4.96101 4.92473 4.31885 5.35359 3.81194C5.78245 3.30502 6.37666 2.96598 7.03125 2.85469V2.8125C7.03125 2.68818 7.08064 2.56895 7.16855 2.48105C7.25645 2.39314 7.37568 2.34375 7.5 2.34375C7.62432 2.34375 7.74355 2.39314 7.83146 2.48105C7.91937 2.56895 7.96875 2.68818 7.96875 2.8125V2.85469C8.62335 2.96598 9.21755 3.30502 9.64641 3.81194C10.0753 4.31885 10.3112 4.96101 10.3125 5.625C10.4368 5.625 10.5561 5.67439 10.644 5.7623C10.7319 5.8502 10.7813 5.96943 10.7813 6.09375C10.7813 6.21807 10.7319 6.3373 10.644 6.42521C10.5561 6.51312 10.4368 6.5625 10.3125 6.5625Z" fill="white"/>
<path d="M13.5938 10.3125H10.7812C10.657 10.3129 10.538 10.3624 10.4502 10.4502C10.3624 10.538 10.3129 10.657 10.3125 10.7812V13.5938C10.3129 13.718 10.3624 13.837 10.4502 13.9248C10.538 14.0126 10.657 14.0621 10.7812 14.0625H13.5938C13.718 14.0621 13.837 14.0126 13.9248 13.9248C14.0126 13.837 14.0621 13.718 14.0625 13.5938V10.7812C14.0621 10.657 14.0126 10.538 13.9248 10.4502C13.837 10.3624 13.718 10.3129 13.5938 10.3125ZM12.9891 12.3234C13.0769 12.4119 13.1262 12.5316 13.1262 12.6562C13.1262 12.7809 13.0769 12.9006 12.9891 12.9891C12.9002 13.0762 12.7807 13.125 12.6562 13.125C12.5318 13.125 12.4123 13.0762 12.3234 12.9891L12.1875 12.8531L12.0516 12.9891C11.9627 13.0762 11.8432 13.125 11.7188 13.125C11.5943 13.125 11.4748 13.0762 11.3859 12.9891C11.2981 12.9006 11.2488 12.7809 11.2488 12.6562C11.2488 12.5316 11.2981 12.4119 11.3859 12.3234L11.5219 12.1875L11.3859 12.0516C11.2983 11.9632 11.2492 11.8436 11.2494 11.7191C11.2497 11.5947 11.2993 11.4753 11.3873 11.3873C11.4753 11.2993 11.5947 11.2497 11.7191 11.2494C11.8436 11.2492 11.9632 11.2983 12.0516 11.3859L12.1875 11.5219L12.3234 11.3859C12.4118 11.2983 12.5314 11.2492 12.6559 11.2494C12.7803 11.2497 12.8997 11.2993 12.9877 11.3873C13.0757 11.4753 13.1253 11.5947 13.1256 11.7191C13.1258 11.8436 13.0767 11.9632 12.9891 12.0516L12.8531 12.1875L12.9891 12.3234Z" fill="white"/>
</svg>
