<svg width="15" height="15" viewBox="0 0 15 15" fill="none" xmlns="http://www.w3.org/2000/svg">
<g clip-path="url(#clip0_3691_87610)">
<mask id="mask0_3691_87610" style="mask-type:luminance" maskUnits="userSpaceOnUse" x="0" y="0" width="15" height="15">
<path d="M15 0H0V15H15V0Z" fill="white"/>
</mask>
<g mask="url(#mask0_3691_87610)">
<mask id="mask1_3691_87610" style="mask-type:luminance" maskUnits="userSpaceOnUse" x="0" y="0" width="15" height="15">
<path d="M0 9.53674e-07H15V15H0V9.53674e-07Z" fill="white"/>
</mask>
<g mask="url(#mask1_3691_87610)">
<path fill-rule="evenodd" clip-rule="evenodd" d="M12.3633 14.1211V9.55078C12.3633 8.38819 12.637 7.23883 12.9314 6.07233C12.9476 6.00816 12.9639 5.94382 12.9802 5.87935C13.2527 4.80347 13.5352 3.68818 13.5352 2.63672V2.05078C13.5352 0.918174 12.617 0 11.4844 0C10.3518 0 9.43359 0.918174 9.43359 2.05078C9.43359 2.36544 9.50451 2.66342 9.63104 2.92969H7.03125V4.10156H11.4844V2.92969C11.3233 2.92969 11.174 2.8869 11.0453 2.81247L10.9775 2.92969L11.0453 2.81246C10.7811 2.65962 10.6055 2.37537 10.6055 2.05078C10.6055 1.56538 10.999 1.17187 11.4844 1.17187C11.9698 1.17187 12.3633 1.56538 12.3633 2.05078V2.63672C12.3633 3.53715 12.1149 4.52029 11.8294 5.64987C11.8181 5.69487 11.8066 5.74011 11.7952 5.78558C11.5036 6.94086 11.1914 8.22314 11.1914 9.55078V14.1211H12.3633Z" fill="#60A5FA"/>
<path fill-rule="evenodd" clip-rule="evenodd" d="M2.37305 2.92969C2.21199 2.92969 2.06269 2.8869 1.93402 2.81247L1.93401 2.81246C1.66979 2.65962 1.49414 2.37537 1.49414 2.05078C1.49414 1.56538 1.88765 1.17188 2.37305 1.17188H11.5137V4.76837e-07H2.37305C1.24044 4.76837e-07 0.322266 0.918174 0.322266 2.05078C0.322266 2.81059 0.735776 3.47315 1.34724 3.82685L1.64008 3.3206L1.34724 3.82685C1.64947 4.00168 2.00049 4.10156 2.37305 4.10156H4.59961V2.92969H2.37305Z" fill="#60A5FA"/>
<path fill-rule="evenodd" clip-rule="evenodd" d="M2.05078 13.8281C1.72716 13.8281 1.46484 13.5658 1.46484 13.2422V9.55078C1.46484 8.48778 1.71228 7.57731 2.01816 6.62881C2.06586 6.48089 2.11537 6.33109 2.16559 6.17916C2.43214 5.3727 2.71855 4.50618 2.85949 3.54176L1.69993 3.3723C1.57504 4.22689 1.32556 4.98353 1.05989 5.78927C1.00789 5.94698 0.95527 6.10657 0.902843 6.26914C0.587524 7.24691 0.292969 8.29933 0.292969 9.55078V13.2422C0.292969 14.213 1.07995 15 2.05078 15H11.9348L14.0905 13.1598C14.4817 12.8258 14.707 12.3373 14.707 11.8229V7.55859C14.707 5.96101 14.3779 4.4095 14.055 3.26824C13.8929 2.69506 13.7306 2.21944 13.6083 1.88578C13.5471 1.71884 13.4959 1.58711 13.4594 1.49613C13.4412 1.45063 13.4267 1.41529 13.4165 1.39081C13.4115 1.37857 13.4075 1.36904 13.4046 1.3623C13.4037 1.36019 13.4029 1.35835 13.4023 1.35679L13.4012 1.35431L13.4002 1.3519L13.3998 1.3511L13.3997 1.3508C13.3997 1.35068 13.3996 1.35057 12.8613 1.58203C12.323 1.81349 12.323 1.8134 12.323 1.81333L12.3233 1.81402C12.3236 1.81491 12.3243 1.81649 12.3253 1.81875C12.3265 1.8216 12.3281 1.82553 12.3302 1.83052C12.3315 1.83349 12.3329 1.83683 12.3344 1.84054C12.3427 1.86046 12.3552 1.89104 12.3715 1.9316C12.404 2.01274 12.4511 2.1337 12.508 2.28902C12.6219 2.59989 12.7746 3.04712 12.9274 3.58723C13.2344 4.67253 13.5352 6.1093 13.5352 7.55859V11.8229C13.5352 11.9943 13.4601 12.1572 13.3296 12.2685L11.5027 13.8281H2.05078Z" fill="#60A5FA"/>
<path fill-rule="evenodd" clip-rule="evenodd" d="M4.01367 6.44531H7.5293V2.05078C7.5293 1.56538 7.9228 1.17188 8.4082 1.17188V4.76837e-07C7.27559 4.76837e-07 6.35742 0.918173 6.35742 2.05078V5.27344H5.18555V2.05078C5.18555 1.56538 5.57905 1.17188 6.06445 1.17188V4.76837e-07C4.93184 4.76837e-07 4.01367 0.918173 4.01367 2.05078V6.44531Z" fill="#60A5FA"/>
</g>
</g>
</g>
<defs>
<clipPath id="clip0_3691_87610">
<rect width="15" height="15" fill="white"/>
</clipPath>
</defs>
</svg>
