<svg width="23" height="23" viewBox="0 0 23 23" fill="none" xmlns="http://www.w3.org/2000/svg">
<g clip-path="url(#clip0_3683_74716)">
<path d="M22.6522 14.3841L21.2772 3.38365C21.2126 2.87024 20.6255 2.61005 20.2025 2.9041C16.4688 5.50037 11.5745 6.4526 8.12609 6.79421C4.35199 7.16805 1.43559 6.91195 1.40637 6.90937C0.986206 6.87104 0.604628 7.22254 0.663498 7.69371L2.0367 18.6794C2.07967 19.0236 2.3723 19.2818 2.71907 19.2818C6.40937 19.2818 9.80223 18.9943 12.8479 18.4253C13.3115 18.3386 13.6988 17.9612 13.7236 17.3706C13.7373 17.0473 13.7857 16.733 13.865 16.4313C13.9183 16.2286 13.7788 16.0268 13.5706 16.0027C12.5183 15.8806 11.887 16.2955 11.2293 16.6516C10.6598 16.9601 10.0056 16.3788 10.2803 15.7526L10.5953 15.0347C10.8376 14.4824 10.8473 13.8559 10.6397 13.3008L9.74723 13.4581C9.36239 13.5259 8.99546 13.2595 8.94566 12.8666C8.89917 12.5 9.16223 12.165 9.52619 12.1008L9.73761 12.0635C8.82294 10.7722 9.2734 8.65474 11.5292 8.25697C12.2897 8.12286 13.0164 8.24184 13.5331 8.58324C13.8593 8.79882 13.9691 9.24103 13.7481 9.56361C13.5316 9.87953 13.0994 9.95744 12.7865 9.73829C12.3191 9.41107 11.1816 9.6117 10.8544 10.079C10.5599 10.4996 10.6214 11.0789 10.9975 11.4266C11.1153 11.5354 11.2261 11.6552 11.3304 11.7827L12.8939 11.507C13.2788 11.4392 13.6451 11.7056 13.6954 12.0976C13.7425 12.4647 13.4783 12.8002 13.1137 12.8645L12.0068 13.0597C12.1691 13.6072 12.2046 14.1885 12.1061 14.7525C12.8795 14.5469 13.6968 14.5572 14.4833 14.7911C14.5897 14.8227 14.6904 14.7878 14.7506 14.7153C16.6271 12.4589 20.1019 12.5755 21.8175 14.9573C22.1065 15.3585 22.7206 14.9363 22.6522 14.3841Z" fill="white"/>
<path d="M18.1885 20.657C16.4825 20.657 15.0946 19.2691 15.0946 17.5631C15.0946 15.8571 16.4825 14.4692 18.1885 14.4692C19.8944 14.4692 21.2823 15.8571 21.2823 17.5631C21.2823 19.2691 19.8944 20.657 18.1885 20.657Z" fill="white"/>
<path d="M9.50659 2.19651C9.28212 2.3323 9.28998 2.66106 9.51901 2.78907C10.292 3.22101 10.9506 3.83424 11.4373 4.57076C11.5554 4.74956 11.7698 4.83893 11.9792 4.79291C13.3093 4.50028 14.7092 4.10573 16.1035 3.57414C16.3347 3.48597 16.4001 3.18668 16.2248 3.012C14.4147 1.20793 11.6411 0.905378 9.50659 2.19651Z" fill="white"/>
<path d="M3.57439 5.08207C3.40187 5.30625 3.56494 5.63145 3.84782 5.63244C5.71505 5.6391 7.65732 5.51101 9.53946 5.23655C9.82238 5.1953 9.93393 4.84892 9.72969 4.6488C7.95523 2.90996 5.08068 3.12477 3.57439 5.08207Z" fill="white"/>
</g>
<defs>
<clipPath id="clip0_3683_74716">
<rect width="22" height="22" fill="white" transform="translate(0.657471 0.03125)"/>
</clipPath>
</defs>
</svg>
