<svg width="15" height="15" viewBox="0 0 15 15" fill="none" xmlns="http://www.w3.org/2000/svg">
<path fill-rule="evenodd" clip-rule="evenodd" d="M3.75 3V5.25H3C2.60218 5.25 2.22064 5.40804 1.93934 5.68934C1.65804 5.97064 1.5 6.35218 1.5 6.75V9C1.5 9.39782 1.65804 9.77936 1.93934 10.0607C2.22064 10.342 2.60218 10.5 3 10.5H3.75V12C3.75 12.3978 3.90804 12.7794 4.18934 13.0607C4.47064 13.342 4.85218 13.5 5.25 13.5H9.75C10.1478 13.5 10.5294 13.342 10.8107 13.0607C11.092 12.7794 11.25 12.3978 11.25 12V10.5H12C12.3978 10.5 12.7794 10.342 13.0607 10.0607C13.342 9.77936 13.5 9.39782 13.5 9V6.75C13.5 6.35218 13.342 5.97064 13.0607 5.68934C12.7794 5.40804 12.3978 5.25 12 5.25H11.25V3C11.25 2.60218 11.092 2.22064 10.8107 1.93934C10.5294 1.65804 10.1478 1.5 9.75 1.5H5.25C4.85218 1.5 4.47064 1.65804 4.18934 1.93934C3.90804 2.22064 3.75 2.60218 3.75 3ZM9.75 3H5.25V5.25H9.75V3ZM9.75 9H5.25V12H9.75V9Z" fill="white"/>
</svg>
