<svg width="25" height="24" viewBox="0 0 25 24" fill="none" xmlns="http://www.w3.org/2000/svg">
<path d="M16.5 23C17.8785 23 19 21.8785 19 20.5V3.5C19 2.1215 17.8785 1 16.5 1H8.5C7.1215 1 6 2.1215 6 3.5V20.5C6 21.8785 7.1215 23 8.5 23H16.5ZM14.566 2L14.2325 2.5H10.7675L10.434 2H14.566ZM7 20.5V3.5C7 2.673 7.673 2 8.5 2H9.2325L10.084 3.2775C10.177 3.4165 10.333 3.5 10.5 3.5H14.5C14.667 3.5 14.823 3.4165 14.916 3.2775L15.7675 2H16.5C17.327 2 18 2.673 18 3.5V20.5C18 21.327 17.327 22 16.5 22H8.5C7.673 22 7 21.327 7 20.5Z" fill="white"/>
<path d="M13 20.5H12C11.724 20.5 11.5 20.724 11.5 21C11.5 21.276 11.724 21.5 12 21.5H13C13.6535 21.4975 13.654 20.5025 13 20.5Z" fill="white"/>
<path d="M14 11C16.9915 10.9535 16.4525 11.489 16.5 8.5C16.5 8.224 16.2765 8 16 8H14C13.7235 8 13.5 8.224 13.5 8.5V10.5C13.5 10.776 13.7235 11 14 11ZM14.5 9H15.5V10H14.5V9Z" fill="white"/>
<path d="M9 16C11.9915 15.9535 11.4525 16.489 11.5 13.5C11.5 13.224 11.276 13 11 13H9C8.724 13 8.5 13.224 8.5 13.5V15.5C8.5 15.776 8.724 16 9 16ZM9.5 14H10.5V15H9.5V14Z" fill="white"/>
<path d="M9 11C11.9915 10.9535 11.4525 11.489 11.5 8.5C11.5 8.224 11.276 8 11 8H9C8.724 8 8.5 8.224 8.5 8.5V10.5C8.5 10.776 8.724 11 9 11ZM9.5 9H10.5V10H9.5V9Z" fill="white"/>
<path d="M9.00008 12.5H10.0001C10.2761 12.5 10.5001 12.276 10.5001 12C10.5001 11.724 10.2761 11.5 10.0001 11.5H9.00008C8.34658 11.503 8.34608 12.497 9.00008 12.5Z" fill="white"/>
<path d="M16.0001 13.5C15.7236 13.5 15.5001 13.724 15.5001 14V15H15.0001C14.3466 15.0025 14.3461 15.9975 15.0001 16H16.0001C16.2766 16 16.5001 15.776 16.5001 15.5V14C16.5001 13.724 16.2766 13.5 16.0001 13.5Z" fill="white"/>
<path d="M14 14.4998C14.2765 14.4998 14.5 14.2758 14.5 13.9998V13.4998C14.7765 13.4998 15 13.2758 15 12.9998V11.9998C14.9975 11.3463 14.0025 11.3453 14 11.9998V12.4998C13.7235 12.4998 13.5 12.7238 13.5 12.9998V13.9998C13.5 14.2758 13.7235 14.4998 14 14.4998Z" fill="white"/>
<path d="M16 11.5C15.7235 11.5 15.5 11.724 15.5 12V12.5C15.5 12.776 15.7235 13 16 13C16.2765 13 16.5 12.776 16.5 12.5V12C16.5 11.724 16.2765 11.5 16 11.5Z" fill="white"/>
<path d="M11 12.0001C11 12.2761 11.224 12.5001 11.5 12.5001H12.5C12.776 12.5001 13 12.2761 13 12.0001V11.0001C12.997 10.3466 12.003 10.3461 12 11.0001V11.5001H11.5C11.224 11.5001 11 11.7241 11 12.0001Z" fill="white"/>
<path d="M12.5 10C12.776 10 13 9.776 13 9.5V8.5C13 8.224 12.776 8 12.5 8C12.224 8 12 8.224 12 8.5V9.5C12 9.776 12.224 10 12.5 10Z" fill="white"/>
<path d="M12 15.5C12 15.776 12.224 16 12.5 16H13.5C13.7765 16 14 15.776 14 15.5C14 15.224 13.7765 15 13.5 15H12.5C12.224 15 12 15.224 12 15.5Z" fill="white"/>
<path d="M12.5 14.5C12.776 14.5 13 14.276 13 14V13.5C13 13.224 12.776 13 12.5 13C12.224 13 12 13.224 12 13.5V14C12 14.276 12.224 14.5 12.5 14.5Z" fill="white"/>
</svg>
