<svg width="12" height="9" viewBox="0 0 12 9" fill="none" xmlns="http://www.w3.org/2000/svg">
<path d="M0.874349 2.91487L1.22913 1.1567C1.33514 0.631309 1.79688 0.25 2.32705 0.25H9.67647C10.2066 0.25 10.6684 0.631309 10.7744 1.15668L11.1292 2.91487H0.874349Z" fill="#F59E0B"/>
<path d="M6.79102 5.57983H5.21248V6.17988H6.79102V5.57983Z" fill="#F59E0B"/>
<path d="M4.48391 5.57983V6.91675H7.51958V5.57983H11.1885L10.9874 7.22298L10.9868 7.22737C10.9116 7.78639 10.4343 8.20791 9.87651 8.20791H2.12703C1.56922 8.20791 1.09192 7.78639 1.01649 7.22573L0.802653 5.57986H4.48391V5.57983Z" fill="#F59E0B"/>
<path d="M0.588793 3.65186H11.4148C11.7395 3.65186 12.0037 3.91905 12.0037 4.24748C12.0037 4.57588 11.7395 4.84307 11.4148 4.84307H0.588768C0.264073 4.84307 -0.000102043 4.57588 -0.000102043 4.24748C-7.82013e-05 3.91905 0.264098 3.65186 0.588793 3.65186Z" fill="#F59E0B"/>
</svg>
