<svg width="14" height="14" viewBox="0 0 14 14" fill="none" xmlns="http://www.w3.org/2000/svg">
<path d="M1.40002 7.3499C1.40002 6.77 1.87013 6.2999 2.45002 6.2999C3.02992 6.2999 3.50002 6.77 3.50002 7.3499V11.5499C3.50002 12.1298 3.02992 12.5999 2.45002 12.5999C1.87013 12.5999 1.40002 12.1298 1.40002 11.5499V7.3499Z" fill="#10B981"/>
<path d="M4.20002 7.23324V11.0347C4.20002 11.5649 4.49963 12.0497 4.97393 12.2869L5.00882 12.3043C5.39761 12.4987 5.82633 12.5999 6.26101 12.5999H10.0523C10.7197 12.5999 11.2942 12.1289 11.4251 11.4745L12.2651 7.27447C12.4384 6.40816 11.7758 5.5999 10.8923 5.5999H8.40002V2.7999C8.40002 2.0267 7.77322 1.3999 7.00002 1.3999C6.61343 1.3999 6.30002 1.7133 6.30002 2.0999V2.56657C6.30002 3.17241 6.10353 3.7619 5.74002 4.24657L4.76002 5.55324C4.39652 6.0379 4.20002 6.6274 4.20002 7.23324Z" fill="#10B981"/>
</svg>
