<svg width="12" height="12" viewBox="0 0 12 12" fill="none" xmlns="http://www.w3.org/2000/svg">
<g clip-path="url(#clip0_1806_9695)">
<path fill-rule="evenodd" clip-rule="evenodd" d="M2.97624 8.34704L11.1319 8.34704C11.3621 8.34704 11.5829 8.25558 11.7457 8.09278C11.9085 7.92998 12 7.70918 12 7.47894C12 7.24871 11.9085 7.0279 11.7457 6.8651C11.5829 6.7023 11.3621 6.61084 11.1319 6.61084L0.868102 6.61084C0.0340793 6.61084 -0.311249 7.66787 0.342211 8.16835L2.85213 10.6783C3.01502 10.8407 3.2357 10.9318 3.46571 10.9317C3.69572 10.9315 3.91627 10.84 4.07891 10.6774C4.24156 10.5148 4.33301 10.2942 4.33318 10.0642C4.33334 9.83418 4.24222 9.6135 4.07981 9.45062L2.97624 8.34704ZM0.868102 5.38923L11.1319 5.38923C11.9659 5.38923 12.3112 4.3322 11.6578 3.83171L9.14787 1.32172C8.98498 1.15932 8.76431 1.06819 8.53429 1.06836C8.30428 1.06853 8.08373 1.15998 7.92109 1.32262C7.75844 1.48527 7.66699 1.70581 7.66683 1.93583C7.66666 2.16584 7.75778 2.38652 7.92019 2.5494L9.02377 3.65298L0.868102 3.65298C0.637868 3.65298 0.417063 3.74444 0.254262 3.90724C0.0914611 4.07004 8.12815e-07 4.29085 8.02751e-07 4.52108C7.92687e-07 4.75132 0.091461 4.97212 0.254262 5.13492C0.417063 5.29772 0.637868 5.38918 0.868102 5.38918L0.868102 5.38923Z" fill="#F9FAFB"/>
</g>
<defs>
<clipPath id="clip0_1806_9695">
<rect width="12" height="12" fill="white" transform="translate(12) rotate(90)"/>
</clipPath>
</defs>
</svg>
