<svg width="12" height="15" viewBox="0 0 12 15" fill="none" xmlns="http://www.w3.org/2000/svg">
<path d="M5.9957 0.616089C4.02718 0.616089 2.42566 2.21761 2.42566 4.18613C2.42566 6.15466 4.02718 7.75618 5.9957 7.75618C7.96423 7.75618 9.56575 6.15466 9.56575 4.18613C9.56575 2.21761 7.96423 0.616089 5.9957 0.616089Z" fill="#D1D5DB"/>
<path d="M10.4376 10.0885C9.46015 9.09603 8.16444 8.5495 6.78907 8.5495H5.20239C3.82705 8.5495 2.5313 9.09603 1.55391 10.0885C0.581293 11.076 0.0456543 12.3796 0.0456543 13.7591C0.0456543 13.9782 0.223257 14.1558 0.442326 14.1558H11.5491C11.7682 14.1558 11.9458 13.9782 11.9458 13.7591C11.9458 12.3796 11.4102 11.076 10.4376 10.0885Z" fill="#D1D5DB"/>
</svg>
